/* XPM */
static char *result[] = {
/* columns rows colors chars-per-pixel */
"50 50 26 1 ",
"  c black",
". c #000101",
"X c #010101",
"o c #000201",
"O c #000202",
"+ c #000302",
"@ c #000303",
"# c gray1",
"$ c #000403",
"% c #000504",
"& c #000605",
"* c #000706",
"= c #040404",
"- c #060606",
"; c #070707",
": c #090909",
"> c #001813",
", c #001914",
"< c #001B16",
"1 c #00FDD3",
"2 c #00FED4",
"3 c #00FFD4",
"4 c #00FFD5",
"5 c #00FEEA",
"6 c #00FFEC",
"7 c None",
/* pixels */
"77777777777777777777777777777777777777777777777777",
"77777777777777777777777777777777777777777777777777",
"77777777777777777777777777777777777777777777777777",
"77777777777777777777777777777777777777777777777777",
"77777777777777777777777777777777777777777777777777",
"77777777777777777777777777777777777777777777777777",
"77777777777777777777777777777777777777777777777777",
"7777         777                  777         7777",
"7777         777                  777         7777",
"7777   ooo.  777 .ooo.      .ooo. 777  .ooo   7777",
"7777  O4444+     44444      44444     o4444O  7777",
"7777  %4444&    .44444      44444.    $4444%  7777",
"7777  %4444&    .44444      44444.    $4444%  7777",
"7777  %6444*@@  .44444@@@@@@44444...@@&4445%  7777",
"7777  %6444444...4444444444444444...4444445%  7777",
"7777  %4444444...4444444444444444...4444445%  7777",
"7777  %4443444...4444444444444444o..4444445%  7777",
"7777  +444444144444444444444444444444444445%  7777",
"7777   <>,4444444444..444444..4444444444445%  7777",
"7777     o4444444444..444444..4444444444444%  7777",
"7777XXX  o4444444444..444444..4444444442444%  7777",
"7777777  o4444444444..444444..4444444444444   7777",
"7777777  o4444444444..444444..4444444444o     7777",
"7777777  o4444444444..444444..4444444444o     7777",
"7777777  o4444444444..444444..4444444444o  7777777",
"7777777  o444444444444444444444444444444o  7777777",
"7777777  o444444444444444444444444444444o  7777777",
"7777777  o444444444444444444444444444444o  7777777",
"7777777   444444444444444444444444444444   7777777",
"7777777    ..%4444444444444444444444%..    7777777",
"7777777      @4444444444444444444444$      7777777",
"77777777777  @4444444444444444444444$  77777777777",
"77777777777= @4444444444444444444444$ #77777777777",
"77777777777- @4444444444444444444444$ =77777777777",
"77777777777- @4444444444444444444444$ =77777777777",
"77777777777- @4444444444444444444444$ =77777777777",
"77777777777-  $$%44444$$$$$$44444%$$  =77777777777",
"77777777777-    .44444      44444.    =77777777777",
"77777777777:==  .44444      44444.  ==;77777777777",
"777777777777777  44444      44444  777777777777777",
"777777777777777  .ooo. 7777 .ooo.  777777777777777",
"777777777777777        7777        777777777777777",
"777777777777777        7777        777777777777777",
"77777777777777777777777777777777777777777777777777",
"77777777777777777777777777777777777777777777777777",
"77777777777777777777777777777777777777777777777777",
"77777777777777777777777777777777777777777777777777",
"77777777777777777777777777777777777777777777777777",
"77777777777777777777777777777777777777777777777777",
"77777777777777777777777777777777777777777777777777"
};
