/* XPM */
static char *c46bdae4a1f14618f79bd2efaa7b30dbdnV4AIaOUcXloG5U[] = {
/* columns rows colors chars-per-pixel */
"50 50 2 1 ",
"  c None",
". c #A300CD",
/* pixels */
"    ..........................................    ",
"    ..........................................    ",
"    ..........................................    ",
"    ..........................................    ",
"....                                          ....",
"....                                          ....",
"....                                          ....",
"....                                          ....",
"....        ..........................        ....",
"....        ..........................        ....",
"....        ..........................        ....",
"....        ..........................        ....",
"....    ....                          ....    ....",
"....    ....                          ....    ....",
"....    ....                          ....    ....",
"....    ....                          ....    ....",
"....    ....                          ....    ....",
"....    ....                          ....    ....",
"....    ....                          ....    ....",
"....    ....                          ....    ....",
"....    ....        ..........        ....    ....",
"....    ....        ..........        ....    ....",
"....    ....        ..........        ....    ....",
"....    ....        ..........        ....    ....",
"....    ....        ..........        ....    ....",
"....    ....        ..........        ....    ....",
"....    ....        ..........        ....    ....",
"....    ....        ..........        ....    ....",
"....    ....        ..........        ....    ....",
"....    ....        ..........        ....    ....",
"....    ....                          ....    ....",
"....    ....                          ....    ....",
"....    ....                          ....    ....",
"....    ....                          ....    ....",
"....    ....                          ....    ....",
"....    ....                          ....    ....",
"....    ....                          ....    ....",
"....    ....                          ....    ....",
"....        ..........................        ....",
"....        ..........................        ....",
"....        ..........................        ....",
"....        ..........................        ....",
"....                                          ....",
"....                                          ....",
"....                                          ....",
"....                                          ....",
"    ..........................................    ",
"    ..........................................    ",
"    ..........................................    ",
"    ..........................................    "
};
