/* XPM */
static char *af3e3ec3a1604e97f0ee11a5624b31d9sQNnBeqJjDM1e9tk[] = {
/* columns rows colors chars-per-pixel */
"50 50 2 1 ",
"  c None",
". c #A300CD",
/* pixels */
"    ..........................................    ",
"    ..........................................    ",
"    ..........................................    ",
"    ..........................................    ",
"..................................................",
"..................................................",
"..................................................",
"..................................................",
"........                                  ........",
"........                                  ........",
"........                                  ........",
"........                                  ........",
"........    ..........................    ........",
"........    ..........................    ........",
"........    ..........................    ........",
"........    ..........................    ........",
"........    ....                  ....    ........",
"........    ....                  ....    ........",
"........    ....                  ....    ........",
"........    ....                  ....    ........",
"........    ....                  ....    ........",
"........    ....                  ....    ........",
"........    ....                  ....    ........",
"........    ....                  ....    ........",
"........    ....                  ....    ........",
"........    ....                  ....    ........",
"........    ....                  ....    ........",
"........    ....                  ....    ........",
"........    ....                  ....    ........",
"........    ....                  ....    ........",
"........    ....                  ....    ........",
"........    ....                  ....    ........",
"........    ....                  ....    ........",
"........    ....                  ....    ........",
"........    ..........................    ........",
"........    ..........................    ........",
"........    ..........................    ........",
"........    ..........................    ........",
"........                                  ........",
"........                                  ........",
"........                                  ........",
"........                                  ........",
"..................................................",
"..................................................",
"..................................................",
"..................................................",
"    ..........................................    ",
"    ..........................................    ",
"    ..........................................    ",
"    ..........................................    "
};
