/* XPM */
static char *result[] = {
/* columns rows colors chars-per-pixel */
"50 50 4 1 ",
"  c gray8",
". c #FFD415",
"X c #A300CD",
"o c None",
/* pixels */
"ooooXXXXXXXXXXXXXXXXXXXXXXXXXXXXXXXXXXXXXXXXXXoooo",
"ooooXXXXXXXXXXXXXXXXXXXXXXXXXXXXXXXXXXXXXXXXXXoooo",
"ooooXXXXXXXXXXXXXXXXXXXXXXXXXXXXXXXXXXXXXXXXXXoooo",
"ooooXXXXXXXXXXXXXXXXXXXXXXXXXXXXXXXXXXXXXXXXXXoooo",
"XXXXooooooooooooooooooooooooooooooooooooooooooXXXX",
"XXXXooooooooooooooooooooooooooooooooooooooooooXXXX",
"XXXXooooooooo...............................ooXXXX",
"XXXXooooooooo...............................ooXXXX",
"XXXXooooXXXXX...............................ooXXXX",
"XXXXooooXXXXX...............................ooXXXX",
"XXXX........................................ooXXXX",
"XXXX........................................ooXXXX",
"XXXX........................................ooXXXX",
"XXXX........................................ooXXXX",
"XXXX........................................ooXXXX",
"XXXXooooXXXXo.........    .........     ....ooXXXX",
"XXXXooooXXXXo.........    .........     ....ooXXXX",
"XXXXooooXXXXo.........    .........     ....ooXXXX",
"XXXXooooXXXXo.........    .........     ....ooXXXX",
"XXXX..................    .........     ....ooXXXX",
"XXXX..................    .........     ....ooXXXX",
"XXXX..................    .........     ....ooXXXX",
"XXXX..................    .........     ....ooXXXX",
"XXXX..................    .........     ....ooXXXX",
"XXXXooooXXXXo...............................ooXXXX",
"XXXXooooXXXXo...............................ooXXXX",
"XXXXooooXXXXo...............................ooXXXX",
"XXXXooooXXXXo...............................ooXXXX",
"XXXX.....XXXo.........             .........ooXXXX",
"XXXX.....XXXo.........             .........ooXXXX",
"XXXX.....XXXo.........             .........ooXXXX",
"XXXX.....XXXo.........             .........ooXXXX",
".............oooXX......................XXooooXXXX",
".............oooXX......................XXooooXXXX",
".............ooooo......................XXooooXXXX",
".............ooooo......................XXooooXXXX",
".............ooooo......................XXooooXXXX",
".............oooooooooooooooooooooooooXXXXooooXXXX",
".............XXXXXXXXXXXXXXXXXXXXXXXXXXXXXooooXXXX",
".............XXXXXXXXXXXXXXXXXXXXXXXXXXXXXooooXXXX",
".............XXXXXXXXXXXXXXXXXXXXXXXXXXXXXooooXXXX",
".........XXXX...............................ooXXXX",
".........oooo...............................ooXXXX",
".........oooo...............................ooXXXX",
".........oooo...............................ooXXXX",
".........oooo...............................ooXXXX",
"oooo.....XXXX..................XXXX.........XXoooo",
"oooo.....XXXX..................XXXX.........XXoooo",
"oooo.....XXXX..................XXXX.........XXoooo",
"oooo.....XXXX..................XXXX.........XXoooo"
};
