/* XPM */
static char *result[] = {
/* columns rows colors chars-per-pixel */
"50 50 3 1 ",
"  c gray8",
". c #FFD415",
"X c None",
/* pixels */
"XXXXXXXXXXXXXXXXXXXXXXXXXXXXXXXXXXXXXXXXXXXXXXXXXX",
"XXXXXXXXXXXXXXXXXXXXXXXXXXXXXXXXXXXXXXXXXXXXXXXXXX",
"XXXXXXXXXXXXXXXXXXXXXXXXXXXXXXXXXXXXXXXXXXXXXXXXXX",
"XXXXXXXXXXXXXXXXXXXXXXXXXXXXXXXXXXXXXXXXXXXXXXXXXX",
"XXXXXXXXXXXXXXXXXXXXXXXXXXXXXXXXXXXXXXXXXXXXXXXXXX",
"XXXXXXXXXXXXXXXXXXXXXXXXXXXXXXXXXXXXXXXXXXXXXXXXXX",
"XXXXXX...............................XXXXXXXXXXXXX",
"XXXXXX...............................XXXXXXXXXXXXX",
"XXXXXX...............................XXXXXXXXXXXXX",
"XXXXXX...............................XXXXXXXXXXXXX",
"XXXXXX........................................XXXX",
"XXXXXX........................................XXXX",
"XXXXXX........................................XXXX",
"XXXXXX........................................XXXX",
"XXXXXX........................................XXXX",
"XXXXXX....     .........    .........XXXXXXXXXXXXX",
"XXXXXX....     .........    .........XXXXXXXXXXXXX",
"XXXXXX....     .........    .........XXXXXXXXXXXXX",
"XXXXXX....     .........    .........XXXXXXXXXXXXX",
"XXXXXX....     .........    ..................XXXX",
"XXXXXX....     .........    ..................XXXX",
"XXXXXX....     .........    ..................XXXX",
"XXXXXX....     .........    ..................XXXX",
"XXXXXX....     .........    ..................XXXX",
"XXXXXX...............................XXXXXXXXXXXXX",
"XXXXXX...............................XXXXXXXXXXXXX",
"XXXXXX...............................XXXXXXXXXXXXX",
"XXXXXX...............................XXXXXXXXXXXXX",
"XXXXXX.........             .........XXXX.....XXXX",
"XXXXXX.........             .........XXXX.....XXXX",
"XXXXXX.........             .........XXXX.....XXXX",
"XXXXXX.........             .........XXXX.....XXXX",
"XXXXXXXXXX......................XXXXX.............",
"XXXXXXXXXX......................XXXXX.............",
"XXXXXXXXXX......................XXXXX.............",
"XXXXXXXXXX......................XXXXX.............",
"XXXXXXXXXX......................XXXXX.............",
"XXXXXXXXXXXXXXXXXXXXXXXXXXXXXXXXXXXXX.............",
"XXXXXXXXXXXXXXXXXXXXXXXXXXXXXXXXXXXXX.............",
"XXXXXXXXXXXXXXXXXXXXXXXXXXXXXXXXXXXXX.............",
"XXXXXXXXXXXXXXXXXXXXXXXXXXXXXXXXXXXXX.............",
"XXXXXX...............................XXXX.........",
"XXXXXX...............................XXXX.........",
"XXXXXX...............................XXXX.........",
"XXXXXX...............................XXXX.........",
"XXXXXX...............................XXXX.........",
"XXXXXX.........XXXX..................XXXX.....XXXX",
"XXXXXX.........XXXX..................XXXX.....XXXX",
"XXXXXX.........XXXX..................XXXX.....XXXX",
"XXXXXX.........XXXX..................XXXX.....XXXX"
};
