/* XPM */
static char *result[] = {
/* columns rows colors chars-per-pixel */
"50 50 3 1 ",
"  c gray8",
". c #FFD415",
"X c None",
/* pixels */
"XXXXXXXXXXXXXXXXXXXXXXXXXXXXXXXXXXXXXXXXXXXXXXXXXX",
"XXXXXXXXXXXXXXXXXXXXXXXXXXXXXXXXXXXXXXXXXXXXXXXXXX",
"XXXXXXXXXXXXXXXXXXXXXXXXXXXXXXXXXXXXXXXXXXXXXXXXXX",
"XXXXXXXXXXXXXXXXXXXXXXXXXXXXXXXXXXXXXXXXXXXXXXXXXX",
"XXXXXXXXXXXXXXXXXXXXXXXXXXXXXXXXXXXXXXXXXXXXXXXXXX",
"XXXXXXXXXXXXXXXXXXXXXXXXXXXXXXXXXXXXXXXXXXXXXXXXXX",
"XXXXXX..........................XXXXXXXXX.........",
"XXXXXX..........................XXXXXXXXX.........",
"XXXXXX..........................XXXXXXXXX.........",
"XXXXXX..........................XXXXXXXXX.........",
"XXXXXX.........         .............XXXX.........",
"XXXXXX.........         .............XXXX.........",
"XXXXXX.........         .............XXXX.........",
"XXXXXX.........         .............XXXX.........",
"XXXXXX.........         .............XXXX.........",
"XXXXXX......................    .....XXXX.....XXXX",
"XXXXXX......................    .....XXXX.....XXXX",
"XXXXXX......................    .....XXXX.....XXXX",
"XXXXXX......................    .....XXXX.....XXXX",
"XXXXXX......................    .....XXXX.........",
"XXXXXX......................    .....XXXX.........",
"XXXXXX......................    .....XXXX.........",
"XXXXXX......................    .....XXXX.........",
"XXXXXX......................    .....XXXX.........",
"XXXXXX.........         ....    .....XXXX.........",
"XXXXXX.........         ....    .....XXXX.........",
"XXXXXX.........         ....    .....XXXX.........",
"XXXXXX.........         ....    .....XXXX.........",
"XXXXXX...............................XXXX.........",
"XXXXXX...............................XXXX.........",
"XXXXXX...............................XXXX.........",
"XXXXXX...............................XXXX.........",
"XXXXXX..........................XXXXXXXXX.........",
"XXXXXX..........................XXXXXXXXX.........",
"XXXXXX..........................XXXXXXXXX.........",
"XXXXXX..........................XXXXXXXXX.........",
"XXXXXX..........................XXXXXXXXX.........",
"XXXXXXXXXX.....XXXX.....XXXXXXXX.........XXXXXXXXX",
"XXXXXXXXXX.....XXXX.....XXXXXXXX.........XXXXXXXXX",
"XXXXXXXXXX.....XXXX.....XXXXXXXX.........XXXXXXXXX",
"XXXXXXXXXX.....XXXX.....XXXXXXXX.........XXXXXXXXX",
"XXXXXXXXXX.....XXXX.....XXXX......................",
"XXXXXXXXXX.....XXXX.....XXXX......................",
"XXXXXXXXXX.....XXXX.....XXXX......................",
"XXXXXXXXXX.....XXXX.....XXXX......................",
"XXXXXXXXXX.....XXXX.....XXXX......................",
"XXXXXXXXXXXXXXXXXXXXXXXXXXXXXXXX..............XXXX",
"XXXXXXXXXXXXXXXXXXXXXXXXXXXXXXXX..............XXXX",
"XXXXXXXXXXXXXXXXXXXXXXXXXXXXXXXX..............XXXX",
"XXXXXXXXXXXXXXXXXXXXXXXXXXXXXXXX..............XXXX"
};
