/* XPM */
static char *result[] = {
/* columns rows colors chars-per-pixel */
"50 50 3 1 ",
"  c gray8",
". c #FFD415",
"X c None",
/* pixels */
"XXXXXX.........XXXX..................XXXX.....XXXX",
"XXXXXX.........XXXX..................XXXX.....XXXX",
"XXXXXX.........XXXX..................XXXX.....XXXX",
"XXXXXX.........XXXX..................XXXX.....XXXX",
"XXXXXX...............................XXXX.........",
"XXXXXX...............................XXXX.........",
"XXXXXX...............................XXXX.........",
"XXXXXX...............................XXXX.........",
"XXXXXX...............................XXXX.........",
"XXXXXXXXXXXXXXXXXXXXXXXXXXXXXXXXXXXXX.............",
"XXXXXXXXXXXXXXXXXXXXXXXXXXXXXXXXXXXXX.............",
"XXXXXXXXXXXXXXXXXXXXXXXXXXXXXXXXXXXXX.............",
"XXXXXXXXXXXXXXXXXXXXXXXXXXXXXXXXXXXXX.............",
"XXXXXXXXXX......................XXXXX.............",
"XXXXXXXXXX......................XXXXX.............",
"XXXXXXXXXX......................XXXXX.............",
"XXXXXXXXXX......................XXXXX.............",
"XXXXXXXXXX......................XXXXX.............",
"XXXXXX.........             .........XXXX.....XXXX",
"XXXXXX.........             .........XXXX.....XXXX",
"XXXXXX.........             .........XXXX.....XXXX",
"XXXXXX.........             .........XXXX.....XXXX",
"XXXXXX...............................XXXXXXXXXXXXX",
"XXXXXX...............................XXXXXXXXXXXXX",
"XXXXXX...............................XXXXXXXXXXXXX",
"XXXXXX...............................XXXXXXXXXXXXX",
"XXXXXX....     .........    ..................XXXX",
"XXXXXX....     .........    ..................XXXX",
"XXXXXX....     .........    ..................XXXX",
"XXXXXX....     .........    ..................XXXX",
"XXXXXX....     .........    ..................XXXX",
"XXXXXX....     .........    .........XXXXXXXXXXXXX",
"XXXXXX....     .........    .........XXXXXXXXXXXXX",
"XXXXXX....     .........    .........XXXXXXXXXXXXX",
"XXXXXX....     .........    .........XXXXXXXXXXXXX",
"XXXXXX........................................XXXX",
"XXXXXX........................................XXXX",
"XXXXXX........................................XXXX",
"XXXXXX........................................XXXX",
"XXXXXX........................................XXXX",
"XXXXXX...............................XXXXXXXXXXXXX",
"XXXXXX...............................XXXXXXXXXXXXX",
"XXXXXX...............................XXXXXXXXXXXXX",
"XXXXXX...............................XXXXXXXXXXXXX",
"XXXXXXXXXXXXXXXXXXXXXXXXXXXXXXXXXXXXXXXXXXXXXXXXXX",
"XXXXXXXXXXXXXXXXXXXXXXXXXXXXXXXXXXXXXXXXXXXXXXXXXX",
"XXXXXXXXXXXXXXXXXXXXXXXXXXXXXXXXXXXXXXXXXXXXXXXXXX",
"XXXXXXXXXXXXXXXXXXXXXXXXXXXXXXXXXXXXXXXXXXXXXXXXXX",
"XXXXXXXXXXXXXXXXXXXXXXXXXXXXXXXXXXXXXXXXXXXXXXXXXX",
"XXXXXXXXXXXXXXXXXXXXXXXXXXXXXXXXXXXXXXXXXXXXXXXXXX"
};
