/* XPM */
static char *result[] = {
/* columns rows colors chars-per-pixel */
"50 50 3 1 ",
"  c #231F1D",
". c #DC7100",
"X c #F78104",
/* pixels */
"                                                  ",
"                                                  ",
"                                                  ",
"                                                  ",
"                                                  ",
"                                                  ",
"                                                  ",
"                                                  ",
"                                                  ",
"                                                  ",
"                                                  ",
"                                                  ",
"                                                  ",
"                                                  ",
"                                                  ",
"                                                  ",
"                                                  ",
"                                                  ",
"                                                  ",
"                      XXXXXX                      ",
"                     XXXXXXXX                     ",
"                    XXXXXXXXXX                    ",
"                   XXXXXXXXXXXX                   ",
"                   XXXXXXXXXXXX                   ",
"                   XXXXXXXXXXXX                   ",
"                   XXXXXXXXXXX.                   ",
"                   XXXXXXXXXXX.                   ",
"                   XXXXXXXXXXX.                   ",
"                    XXXXXXXX..                    ",
"                     XXXXXX..                     ",
"                      XX....                      ",
"                                                  ",
"                                                  ",
"                                                  ",
"                                                  ",
"                                                  ",
"                                                  ",
"                                                  ",
"                                                  ",
"                                                  ",
"                                                  ",
"                                                  ",
"                                                  ",
"                                                  ",
"                                                  ",
"                                                  ",
"                                                  ",
"                                                  ",
"                                                  ",
"                                                  "
};
